<svg width="42" height="42" viewBox="0 0 42 42" fill="none" xmlns="http://www.w3.org/2000/svg">
<path d="M39.0521 20.7286C39.0521 30.7405 30.9356 38.8662 20.9146 38.8662C10.8936 38.8662 2.77701 30.7405 2.77701 20.7286C2.77701 10.7076 10.8936 2.59106 20.9146 2.59106C30.9356 2.59106 39.0521 10.7076 39.0521 20.7286Z" fill="#283544"/>
<path d="M28.6783 16.0136C28.4251 16.1931 28.1037 16.4522 27.7845 16.7969C27.1227 17.5116 26.4609 18.6075 26.4609 20.117V20.126L26.4613 20.135C26.5229 21.8458 27.3539 23.006 28.1628 23.7266C28.5654 24.0852 28.965 24.3379 29.2686 24.5017C29.2957 24.5163 29.3221 24.5303 29.3477 24.5436C29.296 24.6773 29.231 24.8373 29.1504 25.0178C28.9181 25.5385 28.5573 26.2266 28.0196 26.9291L28.0136 26.9369L28.008 26.9449C27.5566 27.585 27.1122 28.1799 26.6107 28.6173C26.1185 29.0465 25.6013 29.2975 24.9991 29.2975C24.403 29.2975 24.0018 29.1327 23.4975 28.9254L23.4585 28.9094C22.9241 28.69 22.3045 28.4464 21.3716 28.4464C20.3826 28.4464 19.7388 28.6863 19.1932 28.909C19.1622 28.9217 19.1317 28.9341 19.1017 28.9464C18.6127 29.1468 18.245 29.2975 17.707 29.2975C17.1099 29.2975 16.5738 29.0339 16.0502 28.5824C15.5203 28.1257 15.0446 27.5131 14.567 26.8768C13.3885 25.2948 12.3825 22.797 12.3473 20.42L12.3472 20.418C12.3237 19.1686 12.5813 17.971 13.208 16.9684C14.0972 15.5632 15.6849 14.612 17.4079 14.5807L17.4079 14.5808L17.4146 14.5805C18.0333 14.5611 18.6389 14.7589 19.2511 14.9956C19.3306 15.0264 19.4119 15.0585 19.4937 15.0907C19.7119 15.1768 19.9341 15.2644 20.1397 15.3339C20.4236 15.4297 20.7334 15.5121 21.0384 15.5121C21.328 15.5121 21.6459 15.4352 21.9485 15.3463C22.1421 15.2894 22.3589 15.2181 22.5805 15.1452C22.7053 15.1041 22.8317 15.0626 22.9564 15.0228C23.6759 14.7931 24.4626 14.5809 25.2819 14.5808L28.6783 16.0136ZM28.6783 16.0136C27.5359 14.7534 25.9396 14.5814 25.2819 14.5808L28.6783 16.0136ZM24.8889 9.61229C24.817 10.4906 24.4265 11.3309 23.8013 11.9738L23.7853 11.9903L23.7709 12.0082C23.1825 12.7365 22.2427 13.2765 21.3615 13.3298C21.3491 12.4821 21.8532 11.6115 22.4115 10.9646C23.054 10.2643 24.0078 9.75868 24.8889 9.61229Z" fill="white" stroke="black"/>
</svg>
